# xmcd
#
# Track frame offsets:
# 150
# 8210
# 22530
# 26432
# 40935
# 47520
# 58172
# 64690
# 77895
# 93170
# 101170
# 107177
# 117825
# 131377
# 139520
# 152305
# 159530
# 172342
# 201317
# 239320
#
# Disc length: 4440 seconds
#
#
# Revision: 0
# Processed by: cddbd v1.5.2PL0 Copyright (c) Steve Scherf et al.
# Submitted via: FreeRIP 2.945 
#
DISCID=fc115614
DTITLE=Ben Charest - Les triplettes de Belleville
DYEAR=2003
DGENRE=Soundtrack
TTITLE0=Sous le pont
TTITLE1=Belleville rendez-vous (Version francaise par M)
TTITLE2=Générique d'ouverture
TTITLE3=Cabaret d'ouverture
TTITLE4=Tour de France
TTITLE5=Attila Marcel
TTITLE6=Thème Bruno
TTITLE7=Tout doux Bruno
TTITLE8=Belleville rendez-vous (maquette)
TTITLE9=Thème de la french mafia
TTITLE10=Bach à  la jazz
TTITLE11=Cabaret aspirateur
TTITLE12=La jungle de Belleville
TTITLE13=Barbier "CIECO,CIECO"
TTITLE14=PA PA PA PALAVAS
TTITLE15=Retour de la French Mafia
TTITLE16=Filature
TTITLE17=Poursuite
TTITLE18=Belleville rendez-vous (Version anglaise par M)
TTITLE19=Data
EXTD=YEAR: 2003
EXTT0=
EXTT1=
EXTT2=
EXTT3=
EXTT4=
EXTT5=
EXTT6=
EXTT7=
EXTT8=
EXTT9=
EXTT10=
EXTT11=
EXTT12=
EXTT13=
EXTT14=
EXTT15=
EXTT16=
EXTT17=
EXTT18=
EXTT19=
PLAYORDER=
